<?xml version="1.0" encoding="utf-8"?><svg viewBox="0 0 111 32" xmlns="http://www.w3.org/2000/svg" xmlns:xlink="http://www.w3.org/1999/xlink"><style>:root>svg{display:none}:root>svg:target{display:block}</style><svg fill="none" viewBox="0 0 16 16" id="adres" xmlns="http://www.w3.org/2000/svg"><path d="M8 0a6.1 6.1 0 00-6.094 6.094c0 1.33.42 2.593 1.216 3.653l4.502 6.064c.012.015.029.02.041.033.225.241.55.18.71-.033 1.297-1.73 3.673-4.961 4.587-6.18V9.63l.006-.008a6.05 6.05 0 001.126-3.528A6.1 6.1 0 008 0zm0 9.381a3.296 3.296 0 01-3.287-3.287A3.296 3.296 0 018 2.806a3.296 3.296 0 013.287 3.288A3.296 3.296 0 018 9.38z" fill="#30549A"/></svg><svg viewBox="0 0 10 7" id="arrow" xmlns="http://www.w3.org/2000/svg"><path d="M9 1L5 5 1 1"/></svg><svg fill="none" viewBox="0 0 16 16" id="calendar" xmlns="http://www.w3.org/2000/svg"><path d="M14.125 1.25h-.75V0h-1.25v1.25h-8.25V0h-1.25v1.25h-.75A1.877 1.877 0 000 3.125v11C0 15.159.841 16 1.875 16h12.25A1.877 1.877 0 0016 14.125v-11a1.877 1.877 0 00-1.875-1.875zm.625 12.875c0 .345-.28.625-.625.625H1.875a.626.626 0 01-.625-.625v-8.25h13.5v8.25zm0-9.5H1.25v-1.5c0-.345.28-.625.625-.625h.75v1.25h1.25V2.5h8.25v1.25h1.25V2.5h.75c.345 0 .625.28.625.625v1.5z" fill="#245B8A"/></svg><svg fill="none" viewBox="0 0 10 9" id="checkbox" xmlns="http://www.w3.org/2000/svg"><path d="M9 1L3.889 7 .969 4.687" stroke="#fff" stroke-width="2"/></svg><svg fill="none" viewBox="0 0 22 22" id="close" xmlns="http://www.w3.org/2000/svg"><path fill-rule="evenodd" clip-rule="evenodd" d="M11 12.06l-9.47 9.47-1.06-1.06L9.94 11 .47 1.53 1.53.47 11 9.94 20.47.47l1.06 1.06L12.06 11l9.47 9.47-1.06 1.06L11 12.06z" fill="#fff"/></svg><svg fill="none" viewBox="0 0 111 20" id="cybernevod" xmlns="http://www.w3.org/2000/svg"><g clip-path="url(#fclip0_819:711)" fill="#30549A"><path d="M10.404 3.81l5.46 5.132-1.813 7.193-7.27 2.06-5.456-5.13L3.137 5.87l7.267-2.062zm.328-1.31l-.656.177-7.273 2.072-.657.187-.174.653-1.806 7.195-.166.65.498.466 5.459 5.133.497.467.655-.18 7.272-2.067.657-.186.166-.656 1.812-7.193.17-.656-.498-.466-5.457-5.131-.5-.465zM29.866 15.463c-.342.226-.73.378-1.136.447-.466.09-.94.137-1.416.136a5.166 5.166 0 01-1.659-.266 3.569 3.569 0 01-1.397-.865 4.213 4.213 0 01-.956-1.542 6.57 6.57 0 01-.354-2.3 6.109 6.109 0 01.398-2.354 4.256 4.256 0 011.037-1.528c.404-.376.887-.66 1.416-.832a5.044 5.044 0 011.57-.252c.474-.007.948.03 1.415.11.326.056.646.143.956.26l-.377 1.582a2.814 2.814 0 00-.767-.22 7.046 7.046 0 00-1.066-.07 2.37 2.37 0 00-1.03.195c-.322.14-.609.352-.836.617-.47.541-.705 1.375-.705 2.502-.005.455.052.908.168 1.348.096.372.266.722.502 1.03.225.285.516.514.85.669.37.166.776.247 1.184.237.357.008.713-.033 1.059-.121.264-.073.517-.178.753-.315l.391 1.532zM32.966 12.303l-3.197-6.006h2.28l1.786 3.589.194 1.015h.069l.207-1.037 1.73-3.562h2.048l-3.193 5.99v3.559h-1.91l-.014-3.548zM45.798 8.522a2.874 2.874 0 01-.091.706 1.93 1.93 0 01-.301.647 2.073 2.073 0 01-.53.524c-.245.16-.518.273-.805.335v.087c.27.047.534.128.783.24.242.105.46.255.643.442.192.201.34.438.438.696.112.31.167.639.16.969a2.45 2.45 0 01-.32 1.286 2.618 2.618 0 01-.848.88 4 4 0 01-1.221.504 6.01 6.01 0 01-1.408.165h-.608a19.574 19.574 0 01-1.659-.081 6.327 6.327 0 01-.801-.122V6.366c.176-.028.379-.055.607-.08.228-.027.47-.052.732-.07.261-.018.526-.032.802-.04.276-.009.545-.015.815-.015.446 0 .89.033 1.331.102.402.06.79.182 1.153.363.337.164.623.414.83.723.213.354.316.762.298 1.173zm-4.085 1.788c.131 0 .282 0 .454-.014.14-.007.278-.02.415-.041.335-.095.646-.257.914-.475a1.071 1.071 0 00.384-.85 1.101 1.101 0 00-.139-.58 1.045 1.045 0 00-.369-.366 1.602 1.602 0 00-.523-.189 3.387 3.387 0 00-.621-.055c-.242 0-.466.005-.67.015a4.343 4.343 0 00-.475.04v2.515h.63zm.606 4.108c.223 0 .446-.027.663-.082a1.76 1.76 0 00.568-.25c.166-.11.304-.254.405-.423.104-.187.156-.397.151-.61a1.218 1.218 0 00-.178-.701 1.207 1.207 0 00-.467-.406 1.93 1.93 0 00-.643-.183 6.327 6.327 0 00-.71-.04h-1v2.613a.87.87 0 00.22.041c.1.01.206.016.321.02l.357.015.313.006zM47.824 6.297h5.784v1.657h-3.87v2.232h3.524v1.665h-3.525v2.333h3.94v1.665h-5.853V6.297zM55.453 6.387a16.237 16.237 0 012.148-.217c.233-.01.446-.014.641-.014.451-.001.902.04 1.346.121.417.074.818.217 1.185.425.346.2.631.484.83.826.222.403.33.858.313 1.317a3.078 3.078 0 01-.558 1.91 2.87 2.87 0 01-1.49 1.014l.673.423 2.231 3.653H60.58l-2.223-3.733-1.004-.176v3.917h-1.899V6.387zm2.928 1.433a7.8 7.8 0 00-.578.014 2.214 2.214 0 00-.44.055v2.776h.809c.451.023.897-.102 1.268-.355.32-.237.48-.628.48-1.173a1.21 1.21 0 00-.395-.954 1.666 1.666 0 00-1.148-.349l.004-.014zM70.734 10.795l-.767-1.502h-.07l.223 1.502v4.983h-1.812V6.153h1.393l3.695 5.09.738 1.46h.069l-.224-1.46v-5.02h1.812v9.622h-1.396l-3.661-5.05zM77.816 6.222h5.787v1.665h-3.877v2.232h3.525v1.665h-3.525v2.334h3.94v1.66h-5.85V6.222zM88.65 11.836l.25 1.624h.07l.28-1.646 1.867-5.596h2.007L89.5 15.845h-1.367L84.48 6.222h2.216l1.954 5.614zM93.362 10.998c0-1.593.358-2.818 1.074-3.678.716-.859 1.738-1.287 3.067-1.284a4.385 4.385 0 011.826.355c.51.23.955.578 1.296 1.015.36.468.62 1.002.767 1.57.174.663.258 1.346.251 2.03 0 1.593-.36 2.819-1.08 3.678-.72.859-1.74 1.289-3.06 1.289a4.418 4.418 0 01-1.842-.356 3.363 3.363 0 01-1.29-1.015 4.436 4.436 0 01-.76-1.574 7.674 7.674 0 01-.249-2.03zm2.007 0c-.004.447.038.893.124 1.331.07.366.2.718.384 1.044.159.277.386.512.662.682.29.168.624.254.962.245.308.013.615-.052.89-.188a1.8 1.8 0 00.685-.59c.372-.517.558-1.36.558-2.524a6.697 6.697 0 00-.118-1.297 3.565 3.565 0 00-.37-1.051 1.9 1.9 0 00-.663-.696 2 2 0 00-1.389-.209c-.473.101-.892.37-1.175.755-.364.526-.546 1.36-.546 2.504l-.004-.006zM103.358 6.222c.195-.027.415-.05.661-.069.246-.018.5-.032.761-.04.26-.01.513-.016.761-.02h.661c.753-.02 1.502.099 2.21.349a3.779 3.779 0 011.493.996c.387.444.671.966.83 1.529.182.635.272 1.292.265 1.952a6.91 6.91 0 01-.251 1.87 4.197 4.197 0 01-.829 1.597 4.183 4.183 0 01-1.541 1.118 5.838 5.838 0 01-2.363.424c-.15 0-.347 0-.593-.014l-.767-.035-.759-.04a6.67 6.67 0 01-.543-.047l.004-9.57zm3.004 1.529c-.205 0-.412.004-.622.014a3.902 3.902 0 00-.467.04v6.402c.063.012.126.019.189.02l.286.014.293.015h.207a2.89 2.89 0 001.341-.28c.344-.174.636-.43.85-.745.217-.326.366-.69.44-1.072a6.16 6.16 0 00.017-2.379 2.808 2.808 0 00-.415-1.014 2.301 2.301 0 00-.817-.737 2.672 2.672 0 00-1.302-.278z"/></g><defs><clipPath id="fclip0_819:711"><path fill="#fff" d="M0 0h111v20H0z"/></clipPath></defs></svg><svg fill="none" viewBox="0 0 16 16" id="email" xmlns="http://www.w3.org/2000/svg"><g clip-path="url(#gclip0_796:3229)" fill="#30549A"><path d="M14.594 1.906H1.406c-.216 0-.419.053-.602.141l7.165 7.165L9.575 7.67l5.621-5.622a1.39 1.39 0 00-.602-.14zM15.86 2.71L10.57 8l5.29 5.29c.087-.183.14-.386.14-.602V3.312a1.39 1.39 0 00-.14-.602zM.14 2.71a1.39 1.39 0 00-.14.602v9.375c0 .217.053.42.14.603L5.43 8 .14 2.71z"/><path d="M9.906 8.663L8.3 10.206a.467.467 0 01-.662 0L6.094 8.663l-5.29 5.29c.183.088.386.14.602.14h13.188c.216 0 .419-.053.602-.14l-5.29-5.29z"/></g><defs><clipPath id="gclip0_796:3229"><path fill="#fff" d="M0 0h16v16H0z"/></clipPath></defs></svg><svg fill="none" viewBox="0 0 32 32" id="search" xmlns="http://www.w3.org/2000/svg"><path d="M30.938 29.137l-7.363-7.362a12.86 12.86 0 002.925-8.181C26.5 6.469 20.719.688 13.594.688 6.463.688.688 6.468.688 13.594c0 7.125 5.775 12.906 12.906 12.906 3.106 0 5.95-1.094 8.175-2.919l7.362 7.357c.5.5 1.306.5 1.806 0 .5-.494.5-1.307 0-1.8zm-17.344-5.206c-5.706 0-10.344-4.637-10.344-10.337S7.888 3.25 13.594 3.25c5.7 0 10.344 4.644 10.344 10.344 0 5.7-4.644 10.337-10.344 10.337z" fill="#fff"/></svg><svg viewBox="0 0 17 14" id="slider-arrow" xmlns="http://www.w3.org/2000/svg"><path fill-rule="evenodd" clip-rule="evenodd" d="M9.707 13.707l-1.414-1.414L12.586 8H0V6h12.586L8.293 1.707 9.707.293 16.414 7l-6.707 6.707z"/></svg><svg viewBox="0 0 32 32" id="telephone" xmlns="http://www.w3.org/2000/svg"><path d="M24.328 21.169c-1.045-1.032-2.35-1.032-3.39 0-.792.785-1.584 1.571-2.363 2.37-.213.22-.393.267-.653.12-.512-.28-1.059-.506-1.551-.812-2.297-1.445-4.222-3.303-5.927-5.394-.845-1.039-1.598-2.15-2.124-3.403-.106-.253-.086-.42.12-.626.792-.765 1.565-1.551 2.344-2.337 1.085-1.092 1.085-2.37-.007-3.47-.619-.625-1.238-1.238-1.858-1.864-.639-.639-1.271-1.285-1.917-1.917-1.046-1.02-2.35-1.02-3.39.006-.799.786-1.565 1.592-2.377 2.364C.483 6.92.103 7.791.023 8.81c-.126 1.658.28 3.223.853 4.747 1.171 3.157 2.956 5.96 5.12 8.53 2.923 3.477 6.413 6.227 10.495 8.211 1.837.892 3.742 1.578 5.813 1.691 1.425.08 2.663-.28 3.656-1.391.679-.76 1.445-1.452 2.164-2.178 1.065-1.079 1.072-2.384.013-3.45-1.265-1.271-2.537-2.536-3.809-3.801zM23.056 15.861l2.457-.419a10.982 10.982 0 00-3.07-5.926 10.923 10.923 0 00-6.259-3.123l-.346 2.47a8.475 8.475 0 014.848 2.417 8.474 8.474 0 012.37 4.582zM26.9 5.18A18.118 18.118 0 0016.51 0l-.346 2.47a15.71 15.71 0 018.976 4.475 15.697 15.697 0 014.402 8.49l2.457-.42a18.25 18.25 0 00-5.1-9.834z"/></svg></svg>