<svg width="111" height="20" viewBox="0 0 111 20" fill="none" xmlns="http://www.w3.org/2000/svg">
<g clip-path="url(#clip0_819:711)">
<path d="M10.404 3.8091L15.8631 8.94198L14.051 16.1349L6.78187 18.195L1.32486 13.0641L3.13695 5.87118L10.404 3.8091ZM10.7316 2.5L10.0764 2.67658L2.80315 4.74881L2.1459 4.93553L1.97174 5.58906L0.165867 12.784L0 13.4335L0.4976 13.9003L5.95668 19.0332L6.45428 19.5L7.10946 19.3194L14.3806 17.2532L15.0379 17.0665L15.2037 16.4109L17.0158 9.218L17.1859 8.56244L16.6883 8.09563L11.2312 2.96478L10.7316 2.5Z" fill="#30549A"/>
<path d="M29.8664 15.4633C29.5242 15.689 29.1369 15.8412 28.7302 15.9098C28.264 16.0009 27.7896 16.0465 27.3141 16.0458C26.75 16.0482 26.1894 15.9583 25.6555 15.7799C25.1268 15.6031 24.6481 15.3069 24.2581 14.9153C23.8298 14.4745 23.5038 13.9483 23.3022 13.3728C23.048 12.6324 22.928 11.8542 22.9477 11.0733C22.9241 10.2707 23.0593 9.47125 23.3458 8.71893C23.5739 8.14188 23.9277 7.62037 24.3825 7.19064C24.7867 6.81526 25.27 6.53121 25.7985 6.3585C26.3044 6.19229 26.8344 6.10731 27.3681 6.10683C27.8425 6.10026 28.3166 6.13695 28.7841 6.21643C29.1105 6.27309 29.4305 6.36008 29.7399 6.47622L29.3626 8.05931C29.1192 7.94963 28.8608 7.87511 28.5955 7.83808C28.2426 7.78816 27.8863 7.76509 27.5298 7.76908C27.1761 7.75656 26.8243 7.82318 26.5009 7.96386C26.1776 8.10454 25.8912 8.31558 25.6638 8.58092C25.1938 9.12215 24.9588 9.95632 24.9588 11.0834C24.9541 11.5379 25.0106 11.991 25.1268 12.4311C25.2228 12.8032 25.3934 13.153 25.6285 13.4601C25.8541 13.7457 26.1454 13.9752 26.4786 14.1299C26.8498 14.2957 27.2546 14.3769 27.6625 14.3673C28.0197 14.3752 28.3763 14.3342 28.7219 14.2456C28.9858 14.1734 29.2389 14.0677 29.4746 13.931L29.8664 15.4633Z" fill="#30549A"/>
<path d="M32.9659 12.3031L29.7688 6.29749H32.0495L33.8346 9.88583L34.0295 10.9006H34.0979L34.3053 9.86351L36.0344 6.30154H38.0829L34.8899 12.2929V15.8509H32.9804L32.9659 12.3031Z" fill="#30549A"/>
<path d="M45.7978 8.5217C45.7968 8.75989 45.7662 8.99707 45.7066 9.22801C45.6478 9.46005 45.5459 9.67952 45.406 9.87545C45.2628 10.08 45.083 10.2574 44.8752 10.3991C44.6306 10.5587 44.3578 10.6723 44.0707 10.734V10.8212C44.3413 10.8684 44.6046 10.9488 44.8544 11.0607C45.0962 11.1657 45.3146 11.316 45.4972 11.5032C45.689 11.7044 45.8377 11.9411 45.9347 12.1994C46.0475 12.5099 46.1016 12.838 46.0943 13.1675C46.1083 13.6167 45.998 14.0614 45.775 14.4542C45.567 14.8085 45.2764 15.1096 44.927 15.3331C44.5519 15.5676 44.139 15.7385 43.7058 15.8384C43.245 15.9485 42.7723 16.0037 42.298 16.0028H41.6905C41.4445 16.0028 41.1798 15.9961 40.8965 15.9825C40.6131 15.969 40.3249 15.9487 40.0319 15.9217C39.762 15.8983 39.4939 15.8576 39.2295 15.7999V6.36626C39.4057 6.33784 39.6089 6.31146 39.837 6.28507C40.065 6.25869 40.3076 6.23433 40.5689 6.21607C40.8301 6.1978 41.0955 6.18359 41.3712 6.17548C41.647 6.16736 41.9165 6.16127 42.1861 6.16127C42.6318 6.16046 43.0769 6.19439 43.5171 6.26275C43.9188 6.32282 44.3079 6.44547 44.6699 6.62605C45.0071 6.79038 45.2934 7.0398 45.4993 7.34859C45.7128 7.70304 45.8165 8.1106 45.7978 8.5217ZM41.7133 10.3098C41.844 10.3098 41.9953 10.3098 42.1674 10.2956C42.3063 10.2891 42.4447 10.2755 42.5821 10.255C42.917 10.16 43.2283 9.99828 43.4964 9.78006C43.6216 9.6757 43.7211 9.54502 43.7875 9.39778C43.8539 9.25054 43.8855 9.09052 43.88 8.92965C43.8881 8.72743 43.8401 8.52684 43.7411 8.34919C43.6514 8.19893 43.5245 8.07327 43.372 7.98386C43.2106 7.89115 43.0337 7.82724 42.8495 7.7951C42.6444 7.75773 42.4362 7.73938 42.2275 7.7403C41.9856 7.7403 41.7624 7.74504 41.5578 7.75451C41.3989 7.75935 41.2404 7.7729 41.0831 7.7951V10.3098H41.7133ZM42.3188 14.4177C42.5425 14.4179 42.7654 14.3907 42.9822 14.3365C43.1854 14.2874 43.3778 14.2028 43.5503 14.0869C43.7157 13.9768 43.8538 13.8318 43.9546 13.6627C44.0591 13.4764 44.1113 13.2663 44.106 13.0538C44.1193 12.8076 44.0572 12.5631 43.9277 12.3516C43.8109 12.1788 43.6501 12.0389 43.4612 11.9457C43.2597 11.848 43.042 11.7862 42.8184 11.763C42.5824 11.7361 42.3449 11.7226 42.1073 11.7224H41.1079V14.3365C41.1791 14.3594 41.253 14.3731 41.3277 14.3771C41.4272 14.3866 41.5343 14.3934 41.6491 14.3974L42.0057 14.4116L42.3188 14.4177Z" fill="#30549A"/>
<path d="M47.8235 6.29749H53.6081V7.95365H49.7372V10.1862H53.2618V11.8505H49.7372V14.1845H53.6765V15.8488H47.8235V6.29749Z" fill="#30549A"/>
<path d="M55.4534 6.38691C55.6676 6.35037 55.8978 6.31655 56.1438 6.28543C56.3898 6.2543 56.6365 6.22927 56.884 6.21033C57.13 6.19274 57.3691 6.17921 57.6013 6.16974C57.8336 6.16027 58.0471 6.15553 58.242 6.15553C58.6934 6.15468 59.144 6.19545 59.5876 6.27731C60.005 6.35061 60.4062 6.49413 60.7735 6.7015C61.1186 6.90161 61.4045 7.18632 61.6029 7.52755C61.8252 7.93148 61.9333 8.38623 61.9159 8.84476C61.9471 9.52381 61.7513 10.1943 61.3582 10.7546C60.9866 11.2419 60.4635 11.598 59.8675 11.7694L60.5413 12.1916L62.7722 15.8449H60.5786L58.356 12.1124L57.3525 11.9359V15.853H55.4534V6.38691ZM58.3809 7.81981C58.186 7.81981 57.9932 7.81981 57.8025 7.83402C57.6544 7.83756 57.5071 7.85592 57.3629 7.88882V10.6653H58.1715C58.623 10.6881 59.0694 10.5632 59.4404 10.3101C59.7597 10.0733 59.9193 9.68231 59.9193 9.13702C59.9276 8.95964 59.8968 8.78259 59.8288 8.61796C59.7608 8.45333 59.6573 8.305 59.5254 8.18311C59.2014 7.92873 58.791 7.804 58.3768 7.83402L58.3809 7.81981Z" fill="#30549A"/>
<path d="M70.7339 10.795L69.9668 9.29312H69.8963L70.1202 10.795V15.7777H68.3081V6.15332H69.7014L73.3961 11.2436L74.1342 12.7029H74.2026L73.9787 11.2436V6.22233H75.7907V15.8447H74.3954L70.7339 10.795Z" fill="#30549A"/>
<path d="M77.8164 6.22241H83.6031V7.88669H79.726V10.1193H83.2506V11.7835H79.726V14.1176H83.6653V15.7778H77.8164V6.22241Z" fill="#30549A"/>
<path d="M88.6495 11.8363L88.9003 13.46H88.9708L89.2507 11.814L91.1167 6.21838H93.1237L89.4995 15.8448H88.1332L84.48 6.22244H86.6964L88.6495 11.8363Z" fill="#30549A"/>
<path d="M93.3621 10.998C93.3621 9.40539 93.7201 8.17951 94.4361 7.3203C95.1521 6.4611 96.1742 6.03286 97.5026 6.03556C98.1306 6.02205 98.7541 6.14328 99.3292 6.39074C99.8391 6.62063 100.284 6.969 100.625 7.40555C100.985 7.87422 101.245 8.40822 101.392 8.97646C101.566 9.63937 101.65 10.3217 101.643 11.0061C101.643 12.5986 101.283 13.8245 100.563 14.6837C99.8427 15.5429 98.8226 15.9725 97.5026 15.9725C96.8697 15.9871 96.2413 15.8658 95.6614 15.6173C95.1522 15.389 94.709 15.0403 94.3718 14.6025C94.0153 14.1314 93.7567 13.5963 93.6109 13.0276C93.4377 12.3646 93.3541 11.6822 93.3621 10.998ZM95.3691 10.998C95.3651 11.4447 95.4068 11.8907 95.4935 12.3294C95.5631 12.6951 95.6926 13.0474 95.8771 13.3726C96.036 13.6503 96.2634 13.8847 96.5385 14.0545C96.8291 14.2235 97.1626 14.3086 97.5005 14.3001C97.809 14.3127 98.1158 14.2479 98.3915 14.1119C98.6673 13.9758 98.903 13.7731 99.0762 13.5228C99.448 13.0046 99.634 12.1629 99.634 10.998C99.6368 10.5629 99.5973 10.1287 99.5158 9.70103C99.4488 9.33406 99.3244 8.97943 99.1467 8.6497C98.9901 8.36585 98.7617 8.12614 98.4833 7.95354C98.0623 7.71874 97.5675 7.6446 97.094 7.74538C96.6205 7.84617 96.2019 8.11476 95.9185 8.49951C95.555 9.02585 95.3732 9.8607 95.3732 11.004L95.3691 10.998Z" fill="#30549A"/>
<path d="M103.358 6.22246C103.553 6.1954 103.773 6.1724 104.019 6.15346C104.265 6.13451 104.519 6.12098 104.78 6.11286C105.04 6.10339 105.293 6.09663 105.541 6.09257H106.202C106.955 6.07347 107.704 6.19185 108.412 6.44166C108.985 6.65067 109.497 6.99264 109.905 7.4382C110.292 7.88222 110.576 8.40388 110.735 8.9665C110.917 9.60166 111.007 10.2591 111 10.919C111.002 11.5502 110.918 12.1789 110.749 12.7882C110.592 13.3726 110.31 13.9172 109.92 14.3856C109.502 14.8699 108.974 15.2528 108.379 15.5039C107.631 15.8072 106.825 15.9518 106.016 15.9281C105.866 15.9281 105.669 15.9281 105.423 15.9138L104.656 15.8793L103.897 15.8388C103.655 15.8252 103.474 15.8097 103.354 15.7921L103.358 6.22246ZM106.362 7.75076C106.157 7.75076 105.95 7.7555 105.74 7.76497C105.584 7.7691 105.428 7.78266 105.273 7.80556V14.2069C105.336 14.219 105.399 14.2258 105.462 14.2272L105.748 14.2415L106.041 14.2557H106.248C106.712 14.271 107.172 14.1748 107.589 13.9756C107.933 13.8018 108.225 13.5455 108.439 13.2307C108.656 12.9048 108.805 12.5408 108.879 12.1591C108.963 11.7481 109.004 11.3299 109.003 10.9109C109.005 10.5315 108.968 10.1529 108.896 9.78037C108.826 9.41887 108.685 9.07414 108.481 8.76556C108.274 8.45886 107.993 8.20603 107.664 8.02882C107.262 7.82802 106.813 7.73225 106.362 7.75076Z" fill="#30549A"/>
</g>
<defs>
<clipPath id="clip0_819:711">
<rect width="111" height="20" fill="white"/>
</clipPath>
</defs>
</svg>
