<svg width="32" height="32" viewBox="0 0 32 32" fill="none" xmlns="http://www.w3.org/2000/svg">
<path d="M30.9375 29.1375L23.575 21.775C25.4 19.55 26.5 16.7 26.5 13.5938C26.5 6.46875 20.7188 0.6875 13.5938 0.6875C6.4625 0.6875 0.6875 6.46875 0.6875 13.5938C0.6875 20.7188 6.4625 26.5 13.5938 26.5C16.7 26.5 19.5437 25.4062 21.7687 23.5812L29.1313 30.9375C29.6313 31.4375 30.4375 31.4375 30.9375 30.9375C31.4375 30.4438 31.4375 29.6313 30.9375 29.1375ZM13.5938 23.9312C7.8875 23.9312 3.25 19.2938 3.25 13.5938C3.25 7.89375 7.8875 3.25 13.5938 3.25C19.2938 3.25 23.9375 7.89375 23.9375 13.5938C23.9375 19.2938 19.2938 23.9312 13.5938 23.9312Z" fill="white"/>
</svg>
