<svg width="32" height="32" viewBox="0 0 32 32" xmlns="http://www.w3.org/2000/svg">
<path d="M24.3282 21.1686C23.2827 20.1365 21.9776 20.1365 20.9388 21.1686C20.1464 21.9544 19.354 22.7401 18.5749 23.5392C18.3618 23.7589 18.182 23.8056 17.9223 23.6591C17.4096 23.3794 16.8635 23.153 16.3708 22.8467C14.0735 21.4017 12.149 19.5439 10.4444 17.453C9.59869 16.4142 8.84623 15.3022 8.32018 14.0503C8.21363 13.7972 8.23361 13.6308 8.44004 13.4243C9.23245 12.6586 10.0049 11.8728 10.784 11.0871C11.8694 9.99502 11.8694 8.71651 10.7773 7.61779C10.158 6.99186 9.53875 6.37924 8.91948 5.7533C8.28022 5.11405 7.64763 4.46814 7.00172 3.83554C5.95627 2.81673 4.65112 2.81673 3.61234 3.8422C2.81327 4.62795 2.0475 5.43368 1.23511 6.20611C0.482654 6.91861 0.103097 7.79093 0.0231904 8.80974C-0.103329 10.4678 0.302864 12.0326 0.875529 13.5575C2.0475 16.7138 3.83208 19.5172 5.99622 22.0876C8.91948 25.5635 12.4087 28.3136 16.4906 30.298C18.3285 31.1903 20.2329 31.8761 22.3039 31.9893C23.7289 32.0692 24.9674 31.7097 25.9596 30.5976C26.6388 29.8385 27.4046 29.146 28.1237 28.4202C29.1892 27.3414 29.1958 26.0363 28.1371 24.9709C26.8719 23.699 25.6 22.4338 24.3282 21.1686Z"/>
<path d="M23.0561 15.8615L25.5133 15.442C25.1271 13.1847 24.0616 11.1404 22.4435 9.5156C20.7322 7.80426 18.568 6.72552 16.1842 6.39258L15.8379 8.86303C17.6824 9.12273 19.3604 9.95509 20.6856 11.2802C21.9374 12.5321 22.7565 14.1169 23.0561 15.8615Z"/>
<path d="M26.8992 5.18062C24.0625 2.34393 20.4734 0.552689 16.5113 0L16.165 2.47045C19.5877 2.94989 22.6908 4.50142 25.1412 6.94523C27.4652 9.26919 28.9901 12.2058 29.5428 15.4353L31.9999 15.0158C31.354 11.2735 29.5894 7.87748 26.8992 5.18062Z"/>
</svg>
